<svg xmlns="http://www.w3.org/2000/svg" xmlns:xlink="http://www.w3.org/1999/xlink" width="20" height="20" viewBox="0 0 20 20">
    <defs>
        <path id="a" d="M18.66 14.998A9.946 9.946 0 0 0 20 10c0-1.82-.489-3.527-1.34-4.997V5A9.993 9.993 0 0 0 10 0a9.993 9.993 0 0 0-8.658 4.999L1.34 5A9.952 9.952 0 0 0 0 10c0 1.822.49 3.528 1.34 5l.002.001A9.994 9.994 0 0 0 10 20a9.993 9.993 0 0 0 8.66-5v-.002zm-1.357-9.215l-2.707 1.564A5.312 5.312 0 0 0 10 4.687V1.563a8.44 8.44 0 0 1 7.303 4.221zM6.25 10A3.754 3.754 0 0 1 10 6.25 3.754 3.754 0 0 1 13.75 10 3.754 3.754 0 0 1 10 13.75 3.754 3.754 0 0 1 6.25 10zm-4.688 0c0-1.536.415-2.975 1.135-4.217l2.707 1.564a5.272 5.272 0 0 0 0 5.306l-2.708 1.564A8.384 8.384 0 0 1 1.562 10zM10 18.438v-3.125a5.311 5.311 0 0 0 4.596-2.66l2.707 1.564A8.44 8.44 0 0 1 10 18.437z"/>
    </defs>
    <use fill="#ffffff" fill-rule="evenodd" xlink:href="#a"/>
</svg>
