<svg xmlns="http://www.w3.org/2000/svg" width="20" height="21" viewBox="0 0 20 21">
    <g fill="#FFF" fill-rule="evenodd">
        <path d="M19.868 8.974c-.026-.027-.052-.08-.079-.106-.026-.026-.026-.052-.052-.079l-3.342-3.368a.588.588 0 0 0-.842 0c-.237.237-.237.684 0 .921l2.342 2.421H6.237a.612.612 0 0 0-.605.605c0 .316.263.606.605.606h11.658l-2.342 2.29a.557.557 0 0 0 0 .815c.236.237.605.21.842-.026l3.368-3.369c.026-.026.053-.052.053-.105.026-.026.052-.053.052-.105.053-.106.053-.185.053-.263 0-.08-.026-.158-.053-.237z"/>
        <path d="M10.895 13.21v4.632h-8.71V2.184h8.71v3.342h2.184V1.184c0-.658-.5-1.184-1.105-1.184H1.105C.5 0 0 .526 0 1.184v17.658c0 .658.5 1.184 1.105 1.184h10.869c.605 0 1.105-.526 1.105-1.184v-5.631h-2.184z"/>
    </g>
</svg>
