<svg xmlns="http://www.w3.org/2000/svg" width="120" height="113" viewBox="0 0 120 113">
    <g fill="none" fill-rule="evenodd">
        <path fill="#4C3CF2" d="M118.743 43.023l-34.27 26.17 13.805 41.799-37.901-24.716-37.902 24.716 11.988-41.799-32.452-26.17h42.382L60.377 1.467l16.226 41.556z"/>
        <path fill="#4C3CF2" d="M116.912 43.648H75.887L60.09 3.192 44.53 43.648H3.269l31.593 25.478-11.67 40.692L60.09 85.756l36.899 24.062-13.44-40.692 33.363-25.478zM99.649 108.94c.83 2.515-1.971 4.672-4.19 3.225L60.09 89.101l-35.368 23.064c-2.173 1.417-4.939-.626-4.224-3.12L31.657 70.14 1.51 45.83c-2.057-1.66-.884-4.983 1.758-4.983h39.337l14.87-38.661c.919-2.388 4.294-2.397 5.225-.013l15.1 38.674h39.112c2.68 0 3.83 3.401 1.7 5.028L86.836 70.141l12.813 38.799z"/>
        <path fill="#7064F5" d="M76.03 43.792h41.025L83.693 69.269l13.44 40.693-36.9-24.062-36.898 24.062 11.67-40.693L3.413 43.792h41.26L60.233 3.335 76.03 43.792zm-15.797 17.22L3.412 43.792l31.594 25.477 25.227-8.257zm0 .236l-36.898 48.714L60.233 85.9V61.248zm0-.236V3.335l-15.56 40.457 15.56 17.22zm0 0l56.822-17.22H76.03l-15.797 17.22zm0 0l36.9 48.95-13.44-40.693-23.46-8.257z"/>
    </g>
</svg>
