<svg xmlns="http://www.w3.org/2000/svg" width="120" height="113" viewBox="0 0 120 113">
    <g fill="none" fill-rule="evenodd">
        <path fill="#04795A" d="M118.743 42.633l-34.27 26.17L98.279 110.6 60.377 85.886 22.475 110.6l11.988-41.798-32.452-26.17h42.382L60.377 1.077l16.226 41.556z"/>
        <path fill="#04795A" d="M116.912 43.258H75.887L60.09 2.802 44.53 43.258H3.269l31.593 25.478-11.67 40.692L60.09 85.366l36.899 24.062-13.44-40.692 33.363-25.478zM99.649 108.55c.83 2.515-1.971 4.672-4.19 3.225L60.09 88.71l-35.368 23.064c-2.173 1.417-4.939-.626-4.224-3.12L31.657 69.75 1.51 45.44c-2.057-1.66-.884-4.983 1.758-4.983h39.337l14.87-38.661c.919-2.388 4.294-2.397 5.225-.013l15.1 38.674h39.112c2.68 0 3.83 3.401 1.7 5.028L86.836 69.75l12.813 38.799z"/>
        <path fill="#009C72" d="M76.03 43.402h41.025L83.693 68.879l13.44 40.693-36.9-24.062-36.898 24.062 11.67-40.693L3.413 43.402h41.26L60.233 2.945 76.03 43.402zm-15.797 17.22L3.412 43.402l31.594 25.477 25.227-8.257zm0 .236l-36.898 48.714L60.233 85.51V60.858zm0-.236V2.945l-15.56 40.457 15.56 17.22zm0 0l56.822-17.22H76.03l-15.797 17.22zm0 0l36.9 48.95-13.44-40.693-23.46-8.257z"/>
    </g>
</svg>
