<svg xmlns="http://www.w3.org/2000/svg" width="120" height="113" viewBox="0 0 120 113">
    <g fill="none" fill-rule="evenodd">
        <path fill="#501E82" d="M118.743 42.629l-34.27 26.17 13.805 41.798L60.377 85.88l-37.902 24.716 11.988-41.799-32.452-26.17h42.382L60.377 1.073 76.603 42.63z"/>
        <path fill="#501E82" d="M116.912 43.254H75.887L60.09 2.797 44.53 43.254H3.269L34.861 68.73l-11.67 40.692L60.09 85.362l36.899 24.061-13.44-40.692 33.363-25.477zm-17.263 65.29c.83 2.517-1.971 4.673-4.19 3.226L60.09 88.706 24.722 111.77c-2.173 1.417-4.939-.625-4.224-3.119l11.159-38.906L1.51 45.435c-2.057-1.66-.884-4.983 1.758-4.983h39.337l14.87-38.661c.919-2.388 4.294-2.396 5.225-.013l15.1 38.674h39.112c2.68 0 3.83 3.402 1.7 5.028L86.836 69.746l12.813 38.799z"/>
        <path fill="#703C98" d="M76.03 43.397h41.025L83.693 68.874l13.44 40.693-36.9-24.062-36.898 24.062 11.67-40.693L3.413 43.397h41.26L60.233 2.94 76.03 43.397zm-15.797 17.22L3.412 43.398l31.594 25.477 25.227-8.256zm0 .236l-36.898 48.714 36.898-24.062V60.853zm0-.235V2.94l-15.56 40.457 15.56 17.22zm0 0l56.822-17.221H76.03l-15.797 17.22zm0 0l36.9 48.949-13.44-40.693-23.46-8.256z"/>
    </g>
</svg>
