<svg xmlns="http://www.w3.org/2000/svg" width="231" height="219" viewBox="0 0 231 219">
    <defs>
        <linearGradient id="a" x1="30.725%" x2="115.032%" y1="68.919%" y2="7.615%">
            <stop offset="0%" stop-color="#BADCFF" stop-opacity=".256"/>
            <stop offset="100%" stop-color="#4284FB"/>
        </linearGradient>
        <linearGradient id="b" x1="30.725%" x2="115.032%" y1="69.684%" y2="5.903%">
            <stop offset="0%" stop-color="#BADCFF" stop-opacity=".256"/>
            <stop offset="100%" stop-color="#4284FB"/>
        </linearGradient>
        <linearGradient id="c" x1="30.725%" x2="115.032%" y1="68.819%" y2="7.841%">
            <stop offset="0%" stop-color="#BADCFF" stop-opacity=".256"/>
            <stop offset="100%" stop-color="#4284FB"/>
        </linearGradient>
        <linearGradient id="d" x1="30.725%" x2="115.032%" y1="69.117%" y2="7.172%">
            <stop offset="0%" stop-color="#BADCFF" stop-opacity=".256"/>
            <stop offset="100%" stop-color="#4284FB"/>
        </linearGradient>
    </defs>
    <g fill="none" fill-rule="evenodd">
        <g fill="#4A90E2">
            <path d="M27.092 130.176v2.278c0 1.525-1.131 2.76-2.525 2.76-1.393 0-2.521-1.235-2.521-2.76v-2.278h-2.281c-1.527 0-2.765-1.127-2.765-2.518 0-1.392 1.238-2.521 2.765-2.521h2.28v-2.279c0-1.524 1.13-2.76 2.522-2.76 1.394 0 2.525 1.236 2.525 2.76v2.279h2.28c1.527 0 2.766 1.129 2.766 2.52 0 1.392-1.239 2.519-2.765 2.519h-2.281zM196.863 49.407c-3.073-.628-5.478-3.19-6.067-6.462-.018-.079-.093-.127-.166-.11a.142.142 0 0 0-.103.11c-.59 3.273-2.993 5.834-6.067 6.462a.15.15 0 0 0 0 .288c3.074.627 5.478 3.187 6.067 6.461.018.08.092.128.166.11a.142.142 0 0 0 .103-.11c.59-3.274 2.994-5.834 6.067-6.461a.15.15 0 0 0 .101-.179.148.148 0 0 0-.101-.11zM53.897 208.137c-3.073-.628-5.477-3.189-6.067-6.461-.017-.08-.093-.128-.166-.11a.142.142 0 0 0-.102.11c-.59 3.272-2.994 5.833-6.067 6.461a.15.15 0 0 0 0 .288c3.073.628 5.477 3.188 6.067 6.462.017.079.091.128.166.109a.142.142 0 0 0 .102-.11c.59-3.273 2.994-5.833 6.067-6.46a.15.15 0 0 0 .102-.18.148.148 0 0 0-.102-.109zM60.892 16.958v1.36c0 1.014-.826 1.838-1.843 1.838a1.842 1.842 0 0 1-1.843-1.84v-1.358h-1.362a1.841 1.841 0 1 1 0-3.68h1.362V11.92a1.842 1.842 0 0 1 3.686-.001v1.359h1.36a1.841 1.841 0 1 1 0 3.68h-1.36zM202.013 65.508c.447 0 .875.176 1.193.491.078.077.148.163.208.255a1.741 1.741 0 0 1 .25.604c.022.11.033.22.032.33a1.654 1.654 0 0 1-.282.934 1.58 1.58 0 0 1-.208.256 1.7 1.7 0 0 1-2.124.21 1.63 1.63 0 0 1-.618-.757 1.76 1.76 0 0 1-.098-.312 1.757 1.757 0 0 1-.034-.33c.002-.11.013-.221.034-.33a1.77 1.77 0 0 1 .46-.86c.078-.078.164-.149.256-.208a1.665 1.665 0 0 1 .606-.249c.108-.022.217-.034.325-.034zM75.868 0c.446.001.875.176 1.19.49.079.079.148.164.209.256a1.617 1.617 0 0 1 .249.606c.024.108.034.218.034.329a1.737 1.737 0 0 1-.128.642 1.64 1.64 0 0 1-.363.548 1.697 1.697 0 0 1-2.123.209 1.632 1.632 0 0 1-.62-.757 1.734 1.734 0 0 1-.097-.312 1.88 1.88 0 0 1-.033-.33c.002-.111.012-.22.033-.33a1.726 1.726 0 0 1 .253-.605 1.649 1.649 0 0 1 .754-.617c.101-.042.208-.074.316-.095.107-.022.216-.034.326-.034z"/>
        </g>
        <g fill-rule="nonzero" transform="translate(69 78)">
            <path fill="#C5DCFA" d="M34.81 2.053v61.685c0 1.894-1.572 3.315-3.385 3.315H11C4.23 60.186 0 50.713 0 40.413c0-19.772 15.23-36.11 34.81-38.36z"/>
            <ellipse cx="47.095" cy="39" fill="#041B31" rx="38.905" ry="39"/>
            <path fill="#FFF" d="M44.202 54.053c-1.434 0-2.748-.6-3.704-1.56l-10.99-11.032c-2.032-2.039-2.032-5.396 0-7.435 2.03-2.039 5.375-2.039 7.406 0l7.288 7.315 16.487-16.549c2.03-2.039 5.376-2.039 7.407 0 2.03 2.039 2.03 5.397 0 7.435l-20.19 20.267c-.956 1.079-2.39 1.559-3.704 1.559z"/>
        </g>
        <path fill="url(#a)" fill-rule="nonzero" d="M13.244 25a4.284 4.284 0 0 1-3.024-1.266l-8.976-8.958c-1.659-1.655-1.659-4.382 0-6.037 1.658-1.655 4.39-1.655 6.049 0l5.95 5.94L26.708 1.24c1.659-1.655 4.39-1.655 6.05 0 1.658 1.656 1.658 4.382 0 6.037L16.267 23.734c-.78.877-1.95 1.266-3.024 1.266z" transform="translate(0 69)"/>
        <path fill="url(#a)" fill-rule="nonzero" d="M13.244 25a4.284 4.284 0 0 1-3.024-1.266l-8.976-8.958c-1.659-1.655-1.659-4.382 0-6.037 1.658-1.655 4.39-1.655 6.049 0l5.95 5.94L26.708 1.24c1.659-1.655 4.39-1.655 6.05 0 1.658 1.656 1.658 4.382 0 6.037L16.267 23.734c-.78.877-1.95 1.266-3.024 1.266z" transform="translate(104 9)"/>
        <path fill="url(#b)" fill-rule="nonzero" d="M9.349 18c-.827 0-1.584-.35-2.135-.911l-6.336-6.45c-1.17-1.192-1.17-3.155 0-4.347a2.996 2.996 0 0 1 4.27 0l4.2 4.277L18.853.894a2.996 2.996 0 0 1 4.27 0c1.17 1.192 1.17 3.155 0 4.347L11.484 17.089c-.551.63-1.378.911-2.135.911z" transform="translate(182 141)"/>
        <path fill="url(#c)" fill-rule="nonzero" d="M5.843 11c-.517 0-.99-.214-1.334-.557L.549 6.501a1.882 1.882 0 0 1 0-2.656 1.903 1.903 0 0 1 2.668 0L5.843 6.46l5.94-5.913a1.903 1.903 0 0 1 2.668 0 1.882 1.882 0 0 1 0 2.657l-7.274 7.24c-.344.386-.86.557-1.334.557z" transform="translate(216 83)"/>
        <g fill="url(#d)" fill-rule="nonzero" transform="translate(121 202)">
            <path d="M8.96 17a2.89 2.89 0 0 1-2.047-.86L.841 10.047a2.924 2.924 0 0 1 0-4.105 2.901 2.901 0 0 1 4.092 0L8.96 9.98 18.067.844a2.901 2.901 0 0 1 4.092 0 2.924 2.924 0 0 1 0 4.105L11.005 16.14c-.528.596-1.32.861-2.046.861z"/>
        </g>
    </g>
</svg>
