<svg xmlns="http://www.w3.org/2000/svg" xmlns:xlink="http://www.w3.org/1999/xlink" width="231" height="219" viewBox="0 0 231 219">
    <defs>
        <linearGradient id="a" x1="50%" x2="50%" y1="31.773%" y2="100%">
            <stop offset="0%" stop-color="#80C3F3"/>
            <stop offset="100%" stop-color="#4A90E2"/>
        </linearGradient>
        <path id="b" d="M14.843 0h77.609c1.94 0 3.492 1.535 3.492 3.454v116.092c0 1.919-1.552 3.454-3.492 3.454H3.492C1.552 123 0 121.465 0 119.546V3.454C0 1.535 1.552 0 3.492 0h5.142"/>
        <linearGradient id="c" x1="30.725%" x2="115.032%" y1="68.919%" y2="7.615%">
            <stop offset="0%" stop-color="#BADCFF" stop-opacity=".256"/>
            <stop offset="100%" stop-color="#4284FB"/>
        </linearGradient>
        <linearGradient id="d" x1="30.725%" x2="115.032%" y1="68.819%" y2="7.841%">
            <stop offset="0%" stop-color="#BADCFF" stop-opacity=".256"/>
            <stop offset="100%" stop-color="#4284FB"/>
        </linearGradient>
        <linearGradient id="e" x1="30.725%" x2="115.032%" y1="69.117%" y2="7.172%">
            <stop offset="0%" stop-color="#BADCFF" stop-opacity=".256"/>
            <stop offset="100%" stop-color="#4284FB"/>
        </linearGradient>
    </defs>
    <g fill="none" fill-rule="evenodd">
        <g fill-rule="nonzero">
            <g transform="translate(61 57)">
                <use fill="url(#a)" xlink:href="#b"/>
                <use fill="#041B31" stroke="#041B31" stroke-width="1.5" xlink:href="#b"/>
            </g>
            <path fill="#FFF" d="M69.909 57.34h1.371"/>
            <path fill="#FFF" stroke="#041B31" stroke-width="1.5" d="M152.147 67.833v104.053c0 1.53-1.263 2.678-2.72 2.678h-79.54a2.694 2.694 0 0 1-2.72-2.678V67.833c0-1.53 1.263-2.678 2.72-2.678h79.54a2.694 2.694 0 0 1 2.72 2.678z"/>
            <path fill="#0072C7" d="M158.657 99.472"/>
            <path fill="#C5DCFA" d="M139.832 90.079h-10.98c-1.07 0-1.944-.847-1.944-1.882s.874-1.882 1.943-1.882h10.98c1.07 0 1.944.847 1.944 1.882s-.874 1.882-1.943 1.882z"/>
            <path fill="#89A8D1" d="M120.98 90.079H96.59c-1.069 0-1.943-.847-1.943-1.882s.874-1.882 1.943-1.882h24.39c1.07 0 1.944.847 1.944 1.882s-.875 1.882-1.944 1.882z"/>
            <path fill="#C5DCFA" d="M88.136 90.079h-7.968c-1.069 0-1.943-.847-1.943-1.882s.874-1.882 1.943-1.882h7.968c1.07 0 1.944.847 1.944 1.882s-.875 1.882-1.944 1.882zM108.834 98.17h-4.373c-1.069 0-1.943-.846-1.943-1.881 0-1.035.874-1.882 1.943-1.882h4.373c1.069 0 1.943.847 1.943 1.882s-.874 1.882-1.943 1.882zM94.841 98.17H80.168c-1.069 0-1.943-.846-1.943-1.881 0-1.035.874-1.882 1.943-1.882h14.673c1.07 0 1.944.847 1.944 1.882s-.875 1.882-1.944 1.882z"/>
            <g>
                <path fill="#C5DCFA" d="M139.832 109.811h-10.98a1.948 1.948 0 0 1-1.944-1.941c0-1.068.874-1.942 1.943-1.942h10.98c1.07 0 1.944.874 1.944 1.942a1.948 1.948 0 0 1-1.943 1.941z"/>
                <path fill="#89A8D1" d="M120.98 109.811H96.59a1.948 1.948 0 0 1-1.943-1.941c0-1.068.874-1.942 1.943-1.942h24.39c1.07 0 1.944.874 1.944 1.942a1.948 1.948 0 0 1-1.944 1.941z"/>
                <path fill="#C5DCFA" d="M88.136 109.811h-7.968a1.948 1.948 0 0 1-1.943-1.941c0-1.068.874-1.942 1.943-1.942h7.968c1.07 0 1.944.874 1.944 1.942a1.948 1.948 0 0 1-1.944 1.941zM108.834 118.063h-4.373a1.948 1.948 0 0 1-1.943-1.941c0-1.068.874-1.942 1.943-1.942h4.373c1.069 0 1.943.874 1.943 1.942a1.948 1.948 0 0 1-1.943 1.941z"/>
                <path fill="#89A8D1" d="M94.841 118.063H80.168a1.948 1.948 0 0 1-1.943-1.941c0-1.068.874-1.942 1.943-1.942h14.673c1.07 0 1.944.874 1.944 1.942a1.948 1.948 0 0 1-1.944 1.941z"/>
            </g>
            <g>
                <path fill="#89A8D1" d="M139.832 129.587h-10.98c-1.07 0-1.944-.847-1.944-1.882s.874-1.881 1.943-1.881h10.98c1.07 0 1.944.846 1.944 1.881 0 1.035-.874 1.882-1.943 1.882z"/>
                <path fill="#C5DCFA" d="M120.98 129.587H96.59c-1.069 0-1.943-.847-1.943-1.882s.874-1.881 1.943-1.881h24.39c1.07 0 1.944.846 1.944 1.881 0 1.035-.875 1.882-1.944 1.882zM88.136 129.587h-7.968c-1.069 0-1.943-.847-1.943-1.882s.874-1.881 1.943-1.881h7.968c1.07 0 1.944.846 1.944 1.881 0 1.035-.875 1.882-1.944 1.882z"/>
                <path fill="#89A8D1" d="M108.834 137.585h-4.373c-1.069 0-1.943-.847-1.943-1.882s.874-1.882 1.943-1.882h4.373c1.069 0 1.943.847 1.943 1.882s-.874 1.882-1.943 1.882z"/>
                <path fill="#C5DCFA" d="M94.841 137.585H80.168c-1.069 0-1.943-.847-1.943-1.882s.874-1.882 1.943-1.882h14.673c1.07 0 1.944.847 1.944 1.882s-.875 1.882-1.944 1.882z"/>
            </g>
            <g>
                <path fill="#C5DCFA" d="M120.561 149.226H96.406a1.939 1.939 0 0 1-1.925-1.942c0-1.068.866-1.941 1.925-1.941h24.155c1.059 0 1.925.873 1.925 1.941a1.939 1.939 0 0 1-1.925 1.942z"/>
                <path fill="#89A8D1" d="M88.033 149.226h-7.89a1.939 1.939 0 0 1-1.926-1.942c0-1.068.867-1.941 1.925-1.941h7.891c1.06 0 1.925.873 1.925 1.941a1.939 1.939 0 0 1-1.925 1.942zM108.532 157.575h-4.33a1.939 1.939 0 0 1-1.926-1.942c0-1.068.866-1.942 1.925-1.942h4.33c1.06 0 1.925.874 1.925 1.942a1.939 1.939 0 0 1-1.924 1.942z"/>
                <path fill="#C5DCFA" d="M94.674 157.575H80.142a1.939 1.939 0 0 1-1.925-1.942c0-1.068.867-1.942 1.925-1.942h14.532c1.058 0 1.924.874 1.924 1.942a1.939 1.939 0 0 1-1.924 1.942z"/>
            </g>
        </g>
        <g fill="#4A90E2">
            <path d="M24.567 120.098c1.394 0 2.525 1.236 2.525 2.76l-.001 2.279h2.282c1.526 0 2.765 1.129 2.765 2.52 0 1.392-1.239 2.519-2.765 2.519H27.09v2.278c0 1.525-1.13 2.76-2.524 2.76-1.393 0-2.521-1.235-2.521-2.76l-.001-2.278h-2.28c-1.527 0-2.765-1.127-2.765-2.518 0-1.392 1.238-2.521 2.765-2.521h2.28v-2.279c0-1.524 1.13-2.76 2.522-2.76zM196.863 49.407c-3.073-.628-5.478-3.19-6.067-6.462-.018-.079-.093-.127-.166-.11a.142.142 0 0 0-.103.11c-.59 3.273-2.993 5.834-6.067 6.462a.15.15 0 0 0 0 .288c3.074.627 5.478 3.187 6.067 6.461.018.08.092.128.166.11a.142.142 0 0 0 .103-.11c.59-3.274 2.994-5.834 6.067-6.461a.15.15 0 0 0 .101-.179.148.148 0 0 0-.101-.11zM53.897 208.137c-3.073-.628-5.477-3.189-6.067-6.461-.017-.08-.093-.128-.166-.11a.142.142 0 0 0-.102.11c-.59 3.272-2.994 5.833-6.067 6.461a.15.15 0 0 0 0 .288c3.073.628 5.477 3.188 6.067 6.462.017.079.091.128.166.109a.142.142 0 0 0 .102-.11c.59-3.273 2.994-5.833 6.067-6.46a.15.15 0 0 0 .102-.18.148.148 0 0 0-.102-.109zM59.047 10.078c1.02 0 1.845.823 1.845 1.84l-.001 1.36h1.36a1.841 1.841 0 1 1 .002 3.68H60.89v1.36a1.842 1.842 0 1 1-3.686-.001v-1.359h-1.36a1.841 1.841 0 1 1 0-3.68h1.36V11.92c0-1.016.825-1.842 1.842-1.842zM202.013 65.508c.447 0 .875.176 1.193.491.078.077.148.163.208.255a1.741 1.741 0 0 1 .25.604c.022.11.033.22.032.33a1.654 1.654 0 0 1-.282.934 1.58 1.58 0 0 1-.208.256 1.7 1.7 0 0 1-2.124.21 1.63 1.63 0 0 1-.618-.757 1.76 1.76 0 0 1-.098-.312 1.757 1.757 0 0 1-.034-.33c.002-.11.013-.221.034-.33a1.77 1.77 0 0 1 .46-.86c.078-.078.164-.149.256-.208a1.665 1.665 0 0 1 .606-.249c.108-.022.217-.034.325-.034zM75.868 0c.446.001.875.176 1.19.49.079.079.148.164.209.256a1.617 1.617 0 0 1 .249.606c.024.108.034.218.034.329a1.737 1.737 0 0 1-.128.642 1.64 1.64 0 0 1-.363.548 1.697 1.697 0 0 1-2.123.209 1.632 1.632 0 0 1-.62-.757 1.734 1.734 0 0 1-.097-.312 1.88 1.88 0 0 1-.033-.33c.002-.111.012-.22.033-.33a1.726 1.726 0 0 1 .253-.605 1.649 1.649 0 0 1 .754-.617c.101-.042.208-.074.316-.095.107-.022.216-.034.326-.034z"/>
        </g>
        <g fill-rule="nonzero" transform="translate(119 107)">
            <path fill="#C5DCFA" d="M34.81 2.053v61.685c0 1.894-1.572 3.315-3.385 3.315H11C4.23 60.186 0 50.713 0 40.413c0-19.772 15.23-36.11 34.81-38.36z"/>
            <ellipse cx="47.095" cy="39" fill="#041B31" rx="38.905" ry="39"/>
            <path fill="#FFF" d="M44.202 54.053c-1.434 0-2.748-.6-3.704-1.56l-10.99-11.032c-2.032-2.039-2.032-5.396 0-7.435 2.03-2.039 5.375-2.039 7.406 0l7.288 7.315 16.487-16.549c2.03-2.039 5.376-2.039 7.407 0 2.03 2.039 2.03 5.397 0 7.435l-20.19 20.267c-.956 1.079-2.39 1.559-3.704 1.559z"/>
        </g>
        <path fill="url(#c)" fill-rule="nonzero" d="M13.244 25a4.284 4.284 0 0 1-3.024-1.266l-8.976-8.958c-1.659-1.655-1.659-4.382 0-6.037 1.658-1.655 4.39-1.655 6.049 0l5.95 5.94L26.708 1.24c1.659-1.655 4.39-1.655 6.05 0 1.658 1.656 1.658 4.382 0 6.037L16.267 23.734c-.78.877-1.95 1.266-3.024 1.266z" transform="translate(0 69)"/>
        <g fill="url(#d)" fill-rule="nonzero" transform="translate(216 83)">
            <path d="M5.843 11c-.517 0-.99-.214-1.334-.557L.549 6.501a1.882 1.882 0 0 1 0-2.656 1.903 1.903 0 0 1 2.668 0L5.843 6.46l5.94-5.913a1.903 1.903 0 0 1 2.668 0 1.882 1.882 0 0 1 0 2.657l-7.274 7.24c-.344.386-.86.557-1.334.557z"/>
        </g>
        <g fill="url(#e)" fill-rule="nonzero" transform="translate(121 202)">
            <path d="M8.96 17a2.89 2.89 0 0 1-2.047-.86L.841 10.047a2.924 2.924 0 0 1 0-4.105 2.901 2.901 0 0 1 4.092 0L8.96 9.98 18.067.844a2.901 2.901 0 0 1 4.092 0 2.924 2.924 0 0 1 0 4.105L11.005 16.14c-.528.596-1.32.861-2.046.861z"/>
        </g>
    </g>
</svg>
