<svg xmlns="http://www.w3.org/2000/svg" width="196" height="215" viewBox="0 0 196 215">
    <defs>
        <linearGradient id="a" x1="50%" x2="50%" y1="26.653%" y2="100%">
            <stop offset="0%" stop-color="#80C3F3"/>
            <stop offset="100%" stop-color="#4A90E2"/>
        </linearGradient>
    </defs>
    <g fill="none" fill-rule="evenodd">
        <g fill="#4A90E2">
            <path d="M10.092 130.176v2.278c0 1.525-1.131 2.76-2.525 2.76-1.393 0-2.521-1.235-2.521-2.76v-2.278H2.765c-1.527 0-2.765-1.127-2.765-2.518 0-1.392 1.238-2.521 2.765-2.521h2.28v-2.279c0-1.524 1.13-2.76 2.522-2.76 1.394 0 2.525 1.236 2.525 2.76v2.279h2.28c1.527 0 2.766 1.129 2.766 2.52 0 1.392-1.239 2.519-2.765 2.519h-2.281zM179.863 49.407c-3.073-.628-5.478-3.19-6.067-6.462-.018-.079-.093-.127-.166-.11a.142.142 0 0 0-.103.11c-.59 3.273-2.993 5.834-6.067 6.462a.15.15 0 0 0 0 .288c3.074.627 5.478 3.187 6.067 6.461.018.08.092.128.166.11a.142.142 0 0 0 .103-.11c.59-3.274 2.994-5.834 6.067-6.461a.15.15 0 0 0 .101-.179.148.148 0 0 0-.101-.11zM36.897 208.137c-3.073-.628-5.477-3.189-6.067-6.461-.017-.08-.093-.128-.166-.11a.142.142 0 0 0-.102.11c-.59 3.272-2.994 5.833-6.067 6.461a.15.15 0 0 0 0 .288c3.073.628 5.477 3.188 6.067 6.462.017.079.091.128.166.109a.142.142 0 0 0 .102-.11c.59-3.273 2.994-5.833 6.067-6.46a.15.15 0 0 0 .102-.18.148.148 0 0 0-.102-.109zM43.892 16.958v1.36c0 1.014-.826 1.838-1.843 1.838a1.842 1.842 0 0 1-1.843-1.84v-1.358h-1.362a1.841 1.841 0 1 1 0-3.68h1.362V11.92a1.842 1.842 0 0 1 3.686-.001v1.359h1.36a1.841 1.841 0 1 1 0 3.68h-1.36zM185.013 65.508c.447 0 .875.176 1.193.491.078.077.148.163.208.255a1.741 1.741 0 0 1 .25.604c.022.11.033.22.032.33a1.654 1.654 0 0 1-.282.934 1.58 1.58 0 0 1-.208.256 1.7 1.7 0 0 1-2.124.21 1.63 1.63 0 0 1-.618-.757 1.76 1.76 0 0 1-.098-.312 1.757 1.757 0 0 1-.034-.33c.002-.11.013-.221.034-.33a1.77 1.77 0 0 1 .46-.86c.078-.078.164-.149.256-.208a1.665 1.665 0 0 1 .606-.249c.108-.022.217-.034.325-.034zM58.868 0c.446.001.875.176 1.19.49.079.079.148.164.209.256a1.617 1.617 0 0 1 .249.606c.024.108.034.218.034.329a1.737 1.737 0 0 1-.128.642 1.64 1.64 0 0 1-.363.548 1.697 1.697 0 0 1-2.123.209 1.632 1.632 0 0 1-.62-.757 1.734 1.734 0 0 1-.097-.312 1.88 1.88 0 0 1-.033-.33c.002-.111.012-.22.033-.33a1.726 1.726 0 0 1 .253-.605 1.649 1.649 0 0 1 .754-.617c.101-.042.208-.074.316-.095.107-.022.216-.034.326-.034z"/>
        </g>
        <path fill="url(#a)" stroke="#041B31" stroke-width="2" d="M51 54v103c0 10.493 8.507 19 19 19h77V54H51z"/>
        <g transform="translate(67 41)">
            <g fill-rule="nonzero" style="mix-blend-mode:multiply">
                <path fill="#C5DCFA" d="M61.699 35.858h-10.98c-1.07 0-1.944-.847-1.944-1.882s.875-1.882 1.943-1.882h10.98c1.07 0 1.944.847 1.944 1.882s-.874 1.882-1.943 1.882z"/>
                <path fill="#89A8D1" d="M42.848 35.858h-24.39c-1.07 0-1.944-.847-1.944-1.882s.875-1.882 1.943-1.882h24.39c1.07 0 1.944.847 1.944 1.882s-.875 1.882-1.943 1.882z"/>
                <path fill="#C5DCFA" d="M10.004 35.858H2.035c-1.068 0-1.943-.847-1.943-1.882s.875-1.882 1.943-1.882h7.969c1.068 0 1.943.847 1.943 1.882s-.875 1.882-1.943 1.882zM30.701 43.95h-4.373c-1.069 0-1.943-.847-1.943-1.882s.874-1.882 1.943-1.882h4.373c1.069 0 1.944.847 1.944 1.882S31.77 43.95 30.7 43.95zM16.708 43.95H2.035c-1.068 0-1.943-.847-1.943-1.882s.875-1.882 1.943-1.882h14.673c1.07 0 1.944.847 1.944 1.882s-.875 1.882-1.944 1.882z"/>
                <g>
                    <path fill="#C5DCFA" d="M61.699 55.59h-10.98a1.948 1.948 0 0 1-1.944-1.941c0-1.068.875-1.942 1.943-1.942h10.98c1.07 0 1.944.874 1.944 1.942A1.948 1.948 0 0 1 61.7 55.59z"/>
                    <path fill="#89A8D1" d="M42.848 55.59h-24.39a1.948 1.948 0 0 1-1.944-1.941c0-1.068.875-1.942 1.943-1.942h24.39c1.07 0 1.944.874 1.944 1.942a1.948 1.948 0 0 1-1.943 1.941z"/>
                    <path fill="#C5DCFA" d="M10.004 55.59H2.035A1.948 1.948 0 0 1 .092 53.65c0-1.068.875-1.942 1.943-1.942h7.969c1.068 0 1.943.874 1.943 1.942a1.948 1.948 0 0 1-1.943 1.941zM30.701 63.842h-4.373a1.948 1.948 0 0 1-1.943-1.941c0-1.068.874-1.942 1.943-1.942h4.373c1.069 0 1.944.874 1.944 1.942a1.948 1.948 0 0 1-1.944 1.941z"/>
                    <path fill="#89A8D1" d="M16.708 63.842H2.035a1.948 1.948 0 0 1-1.943-1.941c0-1.068.875-1.942 1.943-1.942h14.673c1.07 0 1.944.874 1.944 1.942a1.948 1.948 0 0 1-1.944 1.941z"/>
                </g>
                <g>
                    <path fill="#89A8D1" d="M61.699 75.366h-10.98c-1.07 0-1.944-.847-1.944-1.882s.875-1.881 1.943-1.881h10.98c1.07 0 1.944.846 1.944 1.881 0 1.035-.874 1.882-1.943 1.882z"/>
                    <path fill="#C5DCFA" d="M42.848 75.366h-24.39c-1.07 0-1.944-.847-1.944-1.882s.875-1.881 1.943-1.881h24.39c1.07 0 1.944.846 1.944 1.881 0 1.035-.875 1.882-1.943 1.882zM10.004 75.366H2.035c-1.068 0-1.943-.847-1.943-1.882s.875-1.881 1.943-1.881h7.969c1.068 0 1.943.846 1.943 1.881 0 1.035-.875 1.882-1.943 1.882z"/>
                    <path fill="#89A8D1" d="M30.701 83.364h-4.373c-1.069 0-1.943-.847-1.943-1.882s.874-1.882 1.943-1.882h4.373c1.069 0 1.944.847 1.944 1.882s-.875 1.882-1.944 1.882z"/>
                    <path fill="#C5DCFA" d="M16.708 83.364H2.035c-1.068 0-1.943-.847-1.943-1.882S.967 79.6 2.035 79.6h14.673c1.07 0 1.944.847 1.944 1.882s-.875 1.882-1.944 1.882z"/>
                </g>
                <g>
                    <path fill="#C5DCFA" d="M42.428 95.005H18.273a1.939 1.939 0 0 1-1.925-1.942c0-1.068.867-1.941 1.925-1.941h24.155c1.059 0 1.925.873 1.925 1.941a1.939 1.939 0 0 1-1.925 1.942z"/>
                    <path fill="#89A8D1" d="M9.9 95.005H2.01a1.939 1.939 0 0 1-1.925-1.942c0-1.068.866-1.941 1.924-1.941h7.892c1.058 0 1.924.873 1.924 1.941a1.939 1.939 0 0 1-1.924 1.942zM30.399 103.354h-4.33a1.939 1.939 0 0 1-1.926-1.942c0-1.068.867-1.942 1.925-1.942h4.33c1.06 0 1.926.874 1.926 1.942a1.939 1.939 0 0 1-1.925 1.942z"/>
                    <path fill="#C5DCFA" d="M16.54 103.354H2.01a1.939 1.939 0 0 1-1.925-1.942c0-1.068.866-1.942 1.924-1.942h14.532c1.058 0 1.925.874 1.925 1.942a1.939 1.939 0 0 1-1.925 1.942z"/>
                </g>
            </g>
            <circle cx="72.5" cy="92.5" r="40.5" fill="#4A90E2"/>
            <g transform="translate(32 47)">
                <circle cx="50" cy="49" r="43" fill="#041B31" stroke="#041B31" stroke-width="3"/>
                <g fill="#FFF">
                    <path d="M73.326 23.272c-13.644-11.68-34.06-11.195-46.807 1.552C14.532 36.81 13.39 55.58 23.01 69.122l50.317-45.85zM78.054 28.39c10.178 14.301 7.734 34.34-6.035 45.908-12.948 10.88-31.524 10.581-43.919.095L78.054 28.39z"/>
                </g>
            </g>
            <path stroke="#FFF" stroke-linecap="round" stroke-linejoin="round" stroke-width="2.5" d="M127 25c0-8.705-4.449-16.37-11.197-20.847M108.105.75A25.053 25.053 0 0 0 102 0"/>
        </g>
    </g>
</svg>
