<svg xmlns="http://www.w3.org/2000/svg" xmlns:xlink="http://www.w3.org/1999/xlink" width="224" height="215" viewBox="0 0 224 215">
    <defs>
        <linearGradient id="b" x1="50%" x2="50%" y1="36.26%" y2="107.154%">
            <stop offset="0%" stop-color="#80C3F3"/>
            <stop offset="100%" stop-color="#4A90E2"/>
        </linearGradient>
        <circle id="a" cx="68.5" cy="68.5" r="68.5"/>
        <circle id="d" cx="68.5" cy="68.5" r="68.5"/>
        <linearGradient id="e" x1="14.64%" x2="92.784%" y1="14.242%" y2="90.871%">
            <stop offset="0%" stop-color="#80C3F3"/>
            <stop offset="100%" stop-color="#4A90E2"/>
        </linearGradient>
        <circle id="f" cx="49.5" cy="42.5" r="31.5"/>
    </defs>
    <g fill="none" fill-rule="evenodd">
        <g fill="#4A90E2">
            <path d="M10.092 130.176v2.278c0 1.525-1.131 2.76-2.525 2.76-1.393 0-2.521-1.235-2.521-2.76v-2.278H2.765c-1.527 0-2.765-1.127-2.765-2.518 0-1.392 1.238-2.521 2.765-2.521h2.28v-2.279c0-1.524 1.13-2.76 2.522-2.76 1.394 0 2.525 1.236 2.525 2.76v2.279h2.28c1.527 0 2.766 1.129 2.766 2.52 0 1.392-1.239 2.519-2.765 2.519h-2.281zM179.863 49.407c-3.073-.628-5.478-3.19-6.067-6.462-.018-.079-.093-.127-.166-.11a.142.142 0 0 0-.103.11c-.59 3.273-2.993 5.834-6.067 6.462a.15.15 0 0 0 0 .288c3.074.627 5.478 3.187 6.067 6.461.018.08.092.128.166.11a.142.142 0 0 0 .103-.11c.59-3.274 2.994-5.834 6.067-6.461a.15.15 0 0 0 .101-.179.148.148 0 0 0-.101-.11zM36.897 208.137c-3.073-.628-5.477-3.189-6.067-6.461-.017-.08-.093-.128-.166-.11a.142.142 0 0 0-.102.11c-.59 3.272-2.994 5.833-6.067 6.461a.15.15 0 0 0 0 .288c3.073.628 5.477 3.188 6.067 6.462.017.079.091.128.166.109a.142.142 0 0 0 .102-.11c.59-3.273 2.994-5.833 6.067-6.46a.15.15 0 0 0 .102-.18.148.148 0 0 0-.102-.109zM43.892 16.958v1.36c0 1.014-.826 1.838-1.843 1.838a1.842 1.842 0 0 1-1.843-1.84v-1.358h-1.362a1.841 1.841 0 1 1 0-3.68h1.362V11.92a1.842 1.842 0 0 1 3.686-.001v1.359h1.36a1.841 1.841 0 1 1 0 3.68h-1.36zM185.013 65.508c.447 0 .875.176 1.193.491.078.077.148.163.208.255a1.741 1.741 0 0 1 .25.604c.022.11.033.22.032.33a1.654 1.654 0 0 1-.282.934 1.58 1.58 0 0 1-.208.256 1.7 1.7 0 0 1-2.124.21 1.63 1.63 0 0 1-.618-.757 1.76 1.76 0 0 1-.098-.312 1.757 1.757 0 0 1-.034-.33c.002-.11.013-.221.034-.33a1.77 1.77 0 0 1 .46-.86c.078-.078.164-.149.256-.208a1.665 1.665 0 0 1 .606-.249c.108-.022.217-.034.325-.034zM58.868 0c.446.001.875.176 1.19.49.079.079.148.164.209.256a1.617 1.617 0 0 1 .249.606c.024.108.034.218.034.329a1.737 1.737 0 0 1-.128.642 1.64 1.64 0 0 1-.363.548 1.697 1.697 0 0 1-2.123.209 1.632 1.632 0 0 1-.62-.757 1.734 1.734 0 0 1-.097-.312 1.88 1.88 0 0 1-.033-.33c.002-.111.012-.22.033-.33a1.726 1.726 0 0 1 .253-.605 1.649 1.649 0 0 1 .754-.617c.101-.042.208-.074.316-.095.107-.022.216-.034.326-.034z"/>
        </g>
        <g transform="translate(29 34)">
            <mask id="c" fill="#fff">
                <use xlink:href="#a"/>
            </mask>
            <use fill="url(#b)" stroke="#041B31" stroke-width="2" xlink:href="#a"/>
            <path fill="#041B31" d="M126 137c0-32.033-25.967-58-58-58s-58 25.967-58 58" mask="url(#c)"/>
            <ellipse cx="67" cy="55" fill="#041B31" mask="url(#c)" rx="29" ry="30"/>
            <use stroke="#041B31" stroke-width="2" xlink:href="#d"/>
        </g>
        <path fill="#4A90E2" stroke="#041B31" stroke-width="2" d="M176.203 145.312l-7.222 9.583 43.925 33.1a6 6 0 1 0 7.222-9.584l-43.925-33.1z"/>
        <g transform="rotate(-8 713.145 -591.39)">
            <circle cx="40.5" cy="43.5" r="40.5" fill="#4A90E2" opacity=".284"/>
            <circle cx="49" cy="42" r="42" fill="url(#e)" stroke="#041B31" stroke-width="2"/>
            <mask id="g" fill="#fff">
                <use xlink:href="#f"/>
            </mask>
            <use stroke="#041B31" stroke-width="2" xlink:href="#f"/>
            <path fill="#041B31" d="M65 77c0-32.033-25.967-58-58-58s-58 25.967-58 58" mask="url(#g)"/>
            <path stroke="#FFF" stroke-linecap="round" stroke-linejoin="round" stroke-width="3" d="M74 43c0-8.705-4.449-16.37-11.197-20.847m-7.698-3.402A25.053 25.053 0 0 0 49 18" mask="url(#g)"/>
        </g>
        <path stroke="#041B31" stroke-linecap="square" stroke-width="2" d="M185.35 152.191l-7.224 9.676"/>
    </g>
</svg>
