<svg xmlns="http://www.w3.org/2000/svg" width="263" height="275" viewBox="0 0 263 275">
    <defs>
        <linearGradient id="a" x1="50%" x2="50%" y1="42.702%" y2="132.45%">
            <stop offset="0%" stop-color="#7FC1F3"/>
            <stop offset="100%" stop-color="#4B8DF8"/>
        </linearGradient>
        <linearGradient id="b" x1="50%" x2="46.44%" y1="23.13%" y2="93.755%">
            <stop offset="0%" stop-color="#7EC0F3"/>
            <stop offset="100%" stop-color="#4C8EF8"/>
        </linearGradient>
        <linearGradient id="c" x1="50%" x2="50%" y1="87.212%" y2="19.001%">
            <stop offset="0%" stop-color="#BADCFF" stop-opacity=".256"/>
            <stop offset="100%" stop-color="#4284FB"/>
        </linearGradient>
        <linearGradient id="d" x1="50%" x2="50%" y1="87.212%" y2="19.001%">
            <stop offset="0%" stop-color="#BADCFF" stop-opacity=".256"/>
            <stop offset="100%" stop-color="#4284FB"/>
        </linearGradient>
        <linearGradient id="e" x1="50%" x2="50%" y1="87.212%" y2="19.001%">
            <stop offset="0%" stop-color="#BADCFF" stop-opacity=".256"/>
            <stop offset="100%" stop-color="#4284FB"/>
        </linearGradient>
    </defs>
    <g fill="none" fill-rule="evenodd">
        <g fill-rule="nonzero">
            <g transform="translate(57 87)">
                <path fill="url(#a)" stroke="#041B31" stroke-width="3" d="M187.636 131.81H20.864c-3.819 0-6.955-3.139-6.955-6.96V7.368c0-3.82 3.136-6.959 6.955-6.959h166.772c3.819 0 6.955 3.139 6.955 6.96V124.85c0 3.957-3.136 6.96-6.955 6.96z"/>
                <path fill="url(#b)" stroke="#041B31" stroke-width="2" d="M0 23.279v112.297c0 5.185 4.09 9.278 9.273 9.278h159.954c5.182 0 9.273-4.23 9.273-9.278V23.824A9.78 9.78 0 0 0 168.682 14H9.272L0 23.279z"/>
                <path fill="#7FC1F3" stroke="#041B31" stroke-width="2" d="M118.636 33.47H0V19.278C0 14.093 4.09 10 9.273 10h159.954c5.182 0 9.273 4.093 9.273 9.279v14.19H118.636z"/>
                <ellipse cx="14.727" cy="25.789" fill="#FFF" rx="3.955" ry="3.957"/>
                <ellipse cx="26.591" cy="25.789" fill="#DFECFD" rx="3.955" ry="3.957"/>
                <ellipse cx="38.455" cy="25.789" fill="#C4D9F2" rx="3.955" ry="3.957"/>
            </g>
            <path fill="#041B31" d="M196.674 206.472H87.78c-2.593 0-4.64-2.083-4.64-4.722v-3.056c0-2.638 2.047-4.722 4.64-4.722h108.894c2.593 0 4.64 2.084 4.64 4.722v3.056c0 2.639-2.047 4.722-4.64 4.722z"/>
            <path fill="#FFF" d="M125.443 203H89.418c-1.092 0-1.91-.833-1.91-1.944v-1.25c0-1.112.818-1.945 1.91-1.945h36.025c1.091 0 1.91.833 1.91 1.945v1.25c0 1.11-.819 1.944-1.91 1.944z"/>
            <g transform="translate(128 139)">
                <circle cx="20.5" cy="20.5" r="20.5" fill="#041B31"/>
                <path fill="#FFF" d="M30.067 29.002c0 1.065-.994 1.065-.994 1.065H10.56s-.993 0-.993-1.065c0-2.515 1.354-4.547 2.89-6.676a24.066 24.066 0 0 1 2.709-3.193c1.264 1.355 3.07 2.129 4.967 2.129 1.806 0 3.522-.774 4.786-1.935 2.619 2.419 5.148 6.192 5.148 9.675z"/>
                <circle cx="19.817" cy="14.35" r="6.15" fill="#FFF"/>
            </g>
        </g>
        <g fill="#4A90E2">
            <path d="M18 160v2.713c0 1.815-1.345 3.287-3.002 3.287-1.656 0-2.998-1.472-2.998-3.287V160H9.287C7.472 160 6 158.658 6 157.002 6 155.345 7.472 154 9.287 154H12v-2.713c0-1.815 1.342-3.287 2.998-3.287 1.657 0 3.002 1.472 3.002 3.287V154h2.713c1.815 0 3.287 1.345 3.287 3.002 0 1.656-1.472 2.998-3.287 2.998H18zM262.874 56.828c-3.654-.747-6.513-3.797-7.214-7.693-.02-.094-.11-.152-.197-.13a.169.169 0 0 0-.122.13c-.7 3.896-3.56 6.946-7.214 7.693a.179.179 0 0 0 0 .344c3.654.747 6.513 3.795 7.214 7.693.02.094.109.153.197.13a.169.169 0 0 0 .122-.13c.701-3.898 3.56-6.946 7.214-7.693a.178.178 0 0 0 .121-.213.176.176 0 0 0-.12-.13zM49.874 252.828c-3.654-.747-6.513-3.797-7.214-7.693-.02-.094-.11-.152-.197-.13a.169.169 0 0 0-.122.13c-.7 3.896-3.56 6.946-7.214 7.693a.179.179 0 0 0 0 .344c3.654.747 6.513 3.795 7.214 7.693.02.094.109.153.197.13a.169.169 0 0 0 .122-.13c.701-3.898 3.56-6.946 7.214-7.693a.178.178 0 0 0 .121-.213.176.176 0 0 0-.12-.13zM58.192 25.192v1.618a2.192 2.192 0 0 1-4.384-.001v-1.617H52.19a2.19 2.19 0 0 1 0-4.383h1.618v-1.616a2.192 2.192 0 1 1 4.384-.001v1.617h1.616a2.191 2.191 0 0 1 .002 4.383h-1.618zM226 83c.53 0 1.04.21 1.417.585.093.092.176.194.248.304a2.074 2.074 0 0 1 .296.719c.026.13.04.262.039.393a1.971 1.971 0 0 1-.335 1.112 1.88 1.88 0 0 1-.248.305 2.019 2.019 0 0 1-2.526.249 1.94 1.94 0 0 1-.735-.901 2.097 2.097 0 0 1-.115-.372 2.095 2.095 0 0 1-.041-.393c.002-.131.016-.263.04-.392a2.11 2.11 0 0 1 .3-.72c.072-.108.155-.21.248-.304.092-.093.194-.177.303-.248a1.978 1.978 0 0 1 .72-.296c.13-.027.26-.041.388-.041zM76 5c.53.002 1.04.21 1.416.584.092.093.175.195.247.305a1.926 1.926 0 0 1 .296.72c.029.129.041.26.041.392s-.012.264-.04.392a1.953 1.953 0 0 1-.296.72c-.073.11-.156.212-.248.305a2.016 2.016 0 0 1-2.524.249 1.94 1.94 0 0 1-.737-.901 2.067 2.067 0 0 1-.116-.371A2.241 2.241 0 0 1 74 7c.002-.132.014-.262.04-.392a2.167 2.167 0 0 1 .3-.72 1.961 1.961 0 0 1 .896-.735c.12-.05.248-.088.376-.113A1.87 1.87 0 0 1 76 5z"/>
        </g>
        <path fill="url(#c)" fill-rule="nonzero" d="M22.203 42c-1.963 0-3.762-.818-5.07-2.127L2.085 24.823c-2.78-2.78-2.78-7.36 0-10.141 2.78-2.781 7.36-2.781 10.141 0l9.977 9.978L44.774 2.086c2.78-2.781 7.36-2.781 10.14 0 2.781 2.78 2.781 7.36 0 10.142l-27.64 27.645C25.963 41.346 24.001 42 22.202 42z" opacity=".344" transform="translate(0 57)"/>
        <path fill="url(#d)" fill-rule="nonzero" d="M16.36 31a5.283 5.283 0 0 1-3.736-1.57L1.537 18.322c-2.05-2.052-2.05-5.433 0-7.486 2.048-2.052 5.423-2.052 7.472 0l7.351 7.366L32.991 1.539c2.05-2.052 5.424-2.052 7.472 0 2.05 2.053 2.05 5.434 0 7.486L20.096 29.43c-.964 1.087-2.41 1.57-3.736 1.57z" opacity=".344" transform="translate(174)"/>
        <path fill="url(#e)" fill-rule="nonzero" d="M11.686 22a3.785 3.785 0 0 1-2.669-1.114l-7.92-7.883a3.763 3.763 0 0 1 0-5.313c1.464-1.456 3.874-1.456 5.338 0l5.25 5.227 11.88-11.824c1.464-1.457 3.874-1.457 5.337 0a3.763 3.763 0 0 1 0 5.312L14.354 20.886c-.688.771-1.721 1.114-2.668 1.114z" opacity=".344" transform="translate(233 253)"/>
    </g>
</svg>
