<svg xmlns="http://www.w3.org/2000/svg" width="90" height="78" viewBox="0 0 90 78">
    <g fill="none" fill-rule="evenodd">
        <path fill="#FFF" d="M47.237 5.124l38.867 64.161a3.81 3.81 0 0 1-3.259 5.783H6.363a3.81 3.81 0 0 1-3.277-5.751L41.11 5.154a3.571 3.571 0 0 1 6.128-.03z"/>
        <path fill="#D0021B" fill-rule="nonzero" d="M47.48 4.727a3.56 3.56 0 0 0-6.123.04L3.522 69.249a3.821 3.821 0 0 0-.526 1.934A3.809 3.809 0 0 0 6.8 74.997H83.2c.695 0 1.377-.191 1.971-.552a3.82 3.82 0 0 0 1.282-5.238L47.481 4.727zm2.563-1.557l38.972 64.48c1.946 3.22.92 7.412-2.291 9.363A6.785 6.785 0 0 1 83.2 78H6.8C3.044 78 0 74.948 0 71.183c0-1.216.324-2.409.939-3.457L38.776 3.244a6.552 6.552 0 0 1 11.267-.074z"/>
        <path fill="#D0021B" d="M47.747 15.238l29.657 47.949A3.81 3.81 0 0 1 74.164 69H14.85a3.81 3.81 0 0 1-3.24-5.813l29.658-47.949a3.81 3.81 0 0 1 6.48 0z"/>
        <circle cx="44.642" cy="61.068" r="4" fill="#FFF"/>
        <path fill="#FFF" d="M43.78 28.068h.862a3 3 0 0 1 3 3v20.084a2.917 2.917 0 0 1-2.916 2.916h-.049a3 3 0 0 1-2.997-2.865l-.897-20a3 3 0 0 1 2.997-3.135z"/>
    </g>
</svg>
